solid 
 facet normal  0.000000e+00  0.000000e+00  1.000000e+00
   outer loop
     vertex -2.994043e-02 -2.652491e-02  0.000000e+00
     vertex -5.650000e-01 -6.500000e-02  0.000000e+00
     vertex -2.724063e-02 -2.929075e-02  0.000000e+00
   endloop
 endfacet
 facet normal  0.000000e+00  0.000000e+00  1.000000e+00
   outer loop
     vertex -2.428650e-02 -3.178311e-02  0.000000e+00
     vertex -2.724063e-02 -2.929075e-02  0.000000e+00
     vertex -5.650000e-01 -6.500000e-02  0.000000e+00
   endloop
 endfacet
 facet normal  0.000000e+00  0.000000e+00  1.000000e+00
   outer loop
     vertex -3.236068e-02 -2.351141e-02  0.000000e+00
     vertex -5.650000e-01 -6.500000e-02  0.000000e+00
     vertex -2.994043e-02 -2.652491e-02  0.000000e+00
   endloop
 endfacet
 facet normal  0.000000e+00  0.000000e+00  1.000000e+00
   outer loop
     vertex -2.110561e-02 -3.397872e-02  0.000000e+00
     vertex -2.428650e-02 -3.178311e-02  0.000000e+00
     vertex -5.650000e-01 -6.500000e-02  0.000000e+00
   endloop
 endfacet
 facet normal  0.000000e+00  0.000000e+00  1.000000e+00
   outer loop
     vertex -3.447879e-02 -2.027839e-02  0.000000e+00
     vertex -5.650000e-01 -6.500000e-02  0.000000e+00
     vertex -3.236068e-02 -2.351141e-02  0.000000e+00
   endloop
 endfacet
 facet normal  0.000000e+00  0.000000e+00  1.000000e+00
   outer loop
     vertex -1.772766e-02 -3.585708e-02  0.000000e+00
     vertex -2.110561e-02 -3.397872e-02  0.000000e+00
     vertex -5.650000e-01 -6.500000e-02  0.000000e+00
   endloop
 endfacet
 facet normal  0.000000e+00  0.000000e+00  1.000000e+00
   outer loop
     vertex -3.627497e-02 -1.685604e-02  0.000000e+00
     vertex -5.650000e-01 -6.500000e-02  0.000000e+00
     vertex -3.447879e-02 -2.027839e-02  0.000000e+00
   endloop
 endfacet
 facet normal  0.000000e+00  0.000000e+00  1.000000e+00
   outer loop
     vertex -1.418420e-02 -3.740065e-02  0.000000e+00
     vertex -1.772766e-02 -3.585708e-02  0.000000e+00
     vertex -5.650000e-01 -6.500000e-02  0.000000e+00
   endloop
 endfacet
 facet normal  0.000000e+00  0.000000e+00  1.000000e+00
   outer loop
     vertex -3.773247e-02 -1.327631e-02  0.000000e+00
     vertex -5.650000e-01 -6.500000e-02  0.000000e+00
     vertex -3.627497e-02 -1.685604e-02  0.000000e+00
   endloop
 endfacet
 facet normal  0.000000e+00  0.000000e+00  1.000000e+00
   outer loop
     vertex -1.050830e-02 -3.859502e-02  0.000000e+00
     vertex -1.418420e-02 -3.740065e-02  0.000000e+00
     vertex -5.650000e-01 -6.500000e-02  0.000000e+00
   endloop
 endfacet
 facet normal  0.000000e+00  0.000000e+00  1.000000e+00
   outer loop
     vertex -3.883767e-02 -9.572627e-03  0.000000e+00
     vertex -5.650000e-01 -6.500000e-02  0.000000e+00
     vertex -3.773247e-02 -1.327631e-02  0.000000e+00
   endloop
 endfacet
 facet normal  0.000000e+00  0.000000e+00  1.000000e+00
   outer loop
     vertex -6.734282e-03 -3.942904e-02  0.000000e+00
     vertex -1.050830e-02 -3.859502e-02  0.000000e+00
     vertex -5.650000e-01 -6.500000e-02  0.000000e+00
   endloop
 endfacet
 facet normal  0.000000e+00  0.000000e+00  1.000000e+00
   outer loop
     vertex -3.958026e-02 -5.779562e-03  0.000000e+00
     vertex -5.650000e-01 -6.500000e-02  0.000000e+00
     vertex -3.883767e-02 -9.572627e-03  0.000000e+00
   endloop
 endfacet
 facet normal  0.000000e+00  0.000000e+00  1.000000e+00
   outer loop
     vertex -2.897392e-03 -3.989493e-02  0.000000e+00
     vertex -6.734282e-03 -3.942904e-02  0.000000e+00
     vertex -5.650000e-01 -6.500000e-02  0.000000e+00
   endloop
 endfacet
 facet normal  0.000000e+00  0.000000e+00  1.000000e+00
   outer loop
     vertex -3.995329e-02 -1.932535e-03  0.000000e+00
     vertex -5.650000e-01 -6.500000e-02  0.000000e+00
     vertex -3.958026e-02 -5.779562e-03  0.000000e+00
   endloop
 endfacet
 facet normal  0.000000e+00  0.000000e+00  1.000000e+00
   outer loop
     vertex  9.665498e-04 -3.998832e-02  0.000000e+00
     vertex -2.897392e-03 -3.989493e-02  0.000000e+00
     vertex -5.650000e-01 -6.500000e-02  0.000000e+00
   endloop
 endfacet
 facet normal  0.000000e+00  0.000000e+00  1.000000e+00
   outer loop
     vertex -3.995329e-02  1.932535e-03  0.000000e+00
     vertex -5.650000e-01  6.500000e-02  0.000000e+00
     vertex -5.650000e-01 -6.500000e-02  0.000000e+00
   endloop
 endfacet
 facet normal  0.000000e+00  0.000000e+00  1.000000e+00
   outer loop
     vertex -3.995329e-02  1.932535e-03  0.000000e+00
     vertex -5.650000e-01 -6.500000e-02  0.000000e+00
     vertex -3.995329e-02 -1.932535e-03  0.000000e+00
   endloop
 endfacet
 facet normal  0.000000e+00  0.000000e+00  1.000000e+00
   outer loop
     vertex -3.958026e-02  5.779562e-03  0.000000e+00
     vertex -5.650000e-01  6.500000e-02  0.000000e+00
     vertex -3.995329e-02  1.932535e-03  0.000000e+00
   endloop
 endfacet
 facet normal  0.000000e+00  0.000000e+00  1.000000e+00
   outer loop
     vertex -3.883767e-02  9.572627e-03  0.000000e+00
     vertex -5.650000e-01  6.500000e-02  0.000000e+00
     vertex -3.958026e-02  5.779562e-03  0.000000e+00
   endloop
 endfacet
 facet normal  0.000000e+00  0.000000e+00  1.000000e+00
   outer loop
     vertex -3.773247e-02  1.327631e-02  0.000000e+00
     vertex -5.650000e-01  6.500000e-02  0.000000e+00
     vertex -3.883767e-02  9.572627e-03  0.000000e+00
   endloop
 endfacet
 facet normal  0.000000e+00  0.000000e+00  1.000000e+00
   outer loop
     vertex -3.627497e-02  1.685604e-02  0.000000e+00
     vertex -5.650000e-01  6.500000e-02  0.000000e+00
     vertex -3.773247e-02  1.327631e-02  0.000000e+00
   endloop
 endfacet
 facet normal  0.000000e+00  0.000000e+00  1.000000e+00
   outer loop
     vertex -3.447879e-02  2.027839e-02  0.000000e+00
     vertex -5.650000e-01  6.500000e-02  0.000000e+00
     vertex -3.627497e-02  1.685604e-02  0.000000e+00
   endloop
 endfacet
 facet normal  0.000000e+00  0.000000e+00  1.000000e+00
   outer loop
     vertex -3.236068e-02  2.351141e-02  0.000000e+00
     vertex -5.650000e-01  6.500000e-02  0.000000e+00
     vertex -3.447879e-02  2.027839e-02  0.000000e+00
   endloop
 endfacet
 facet normal  0.000000e+00  0.000000e+00  1.000000e+00
   outer loop
     vertex -2.994043e-02  2.652491e-02  0.000000e+00
     vertex -5.650000e-01  6.500000e-02  0.000000e+00
     vertex -3.236068e-02  2.351141e-02  0.000000e+00
   endloop
 endfacet
 facet normal  0.000000e+00  0.000000e+00  1.000000e+00
   outer loop
     vertex -2.724063e-02  2.929075e-02  0.000000e+00
     vertex -5.650000e-01  6.500000e-02  0.000000e+00
     vertex -2.994043e-02  2.652491e-02  0.000000e+00
   endloop
 endfacet
 facet normal  0.000000e+00  0.000000e+00  1.000000e+00
   outer loop
     vertex -2.428650e-02  3.178311e-02  0.000000e+00
     vertex -5.650000e-01  6.500000e-02  0.000000e+00
     vertex -2.724063e-02  2.929075e-02  0.000000e+00
   endloop
 endfacet
 facet normal  0.000000e+00  0.000000e+00  1.000000e+00
   outer loop
     vertex -2.110561e-02  3.397872e-02  0.000000e+00
     vertex -5.650000e-01  6.500000e-02  0.000000e+00
     vertex -2.428650e-02  3.178311e-02  0.000000e+00
   endloop
 endfacet
 facet normal  0.000000e+00  0.000000e+00  1.000000e+00
   outer loop
     vertex -1.772766e-02  3.585708e-02  0.000000e+00
     vertex -5.650000e-01  6.500000e-02  0.000000e+00
     vertex -2.110561e-02  3.397872e-02  0.000000e+00
   endloop
 endfacet
 facet normal  0.000000e+00  0.000000e+00  1.000000e+00
   outer loop
     vertex  3.900000e-01 -6.500000e-02  0.000000e+00
     vertex  9.665498e-04 -3.998832e-02  0.000000e+00
     vertex -5.650000e-01 -6.500000e-02  0.000000e+00
   endloop
 endfacet
 facet normal  0.000000e+00  0.000000e+00  1.000000e+00
   outer loop
     vertex  3.900000e-01 -6.500000e-02  0.000000e+00
     vertex  4.821467e-03 -3.970835e-02  0.000000e+00
     vertex  9.665498e-04 -3.998832e-02  0.000000e+00
   endloop
 endfacet
 facet normal  0.000000e+00  0.000000e+00  1.000000e+00
   outer loop
     vertex  3.900000e-01 -6.500000e-02  0.000000e+00
     vertex  8.631368e-03 -3.905764e-02  0.000000e+00
     vertex  4.821467e-03 -3.970835e-02  0.000000e+00
   endloop
 endfacet
 facet normal  0.000000e+00  0.000000e+00  1.000000e+00
   outer loop
     vertex  3.900000e-01 -6.500000e-02  0.000000e+00
     vertex  1.236068e-02 -3.804226e-02  0.000000e+00
     vertex  8.631368e-03 -3.905764e-02  0.000000e+00
   endloop
 endfacet
 facet normal  0.000000e+00  0.000000e+00  1.000000e+00
   outer loop
     vertex  3.900000e-01 -6.500000e-02  0.000000e+00
     vertex  1.597458e-02 -3.667169e-02  0.000000e+00
     vertex  1.236068e-02 -3.804226e-02  0.000000e+00
   endloop
 endfacet
 facet normal  0.000000e+00  0.000000e+00  1.000000e+00
   outer loop
     vertex  3.900000e-01 -6.500000e-02  0.000000e+00
     vertex  1.943934e-02 -3.495872e-02  0.000000e+00
     vertex  1.597458e-02 -3.667169e-02  0.000000e+00
   endloop
 endfacet
 facet normal  0.000000e+00  0.000000e+00  1.000000e+00
   outer loop
     vertex  3.900000e-01 -6.500000e-02  0.000000e+00
     vertex  2.272259e-02 -3.291935e-02  0.000000e+00
     vertex  1.943934e-02 -3.495872e-02  0.000000e+00
   endloop
 endfacet
 facet normal  0.000000e+00  0.000000e+00  1.000000e+00
   outer loop
     vertex  3.900000e-01 -6.500000e-02  0.000000e+00
     vertex  2.579369e-02 -3.057263e-02  0.000000e+00
     vertex  2.272259e-02 -3.291935e-02  0.000000e+00
   endloop
 endfacet
 facet normal  0.000000e+00  0.000000e+00  1.000000e+00
   outer loop
     vertex  3.900000e-01 -6.500000e-02  0.000000e+00
     vertex  2.862396e-02 -2.794045e-02  0.000000e+00
     vertex  2.579369e-02 -3.057263e-02  0.000000e+00
   endloop
 endfacet
 facet normal  0.000000e+00  0.000000e+00  1.000000e+00
   outer loop
     vertex  3.900000e-01 -6.500000e-02  0.000000e+00
     vertex  3.118697e-02 -2.504741e-02  0.000000e+00
     vertex  2.862396e-02 -2.794045e-02  0.000000e+00
   endloop
 endfacet
 facet normal  0.000000e+00  0.000000e+00  1.000000e+00
   outer loop
     vertex  3.900000e-01 -6.500000e-02  0.000000e+00
     vertex  3.345881e-02 -2.192050e-02  0.000000e+00
     vertex  3.118697e-02 -2.504741e-02  0.000000e+00
   endloop
 endfacet
 facet normal  0.000000e+00  0.000000e+00  1.000000e+00
   outer loop
     vertex  3.900000e-01 -6.500000e-02  0.000000e+00
     vertex  3.541824e-02 -1.858893e-02  0.000000e+00
     vertex  3.345881e-02 -2.192050e-02  0.000000e+00
   endloop
 endfacet
 facet normal  0.000000e+00  0.000000e+00  1.000000e+00
   outer loop
     vertex  3.900000e-01 -6.500000e-02  0.000000e+00
     vertex  3.704699e-02 -1.508379e-02  0.000000e+00
     vertex  3.541824e-02 -1.858893e-02  0.000000e+00
   endloop
 endfacet
 facet normal  0.000000e+00  0.000000e+00  1.000000e+00
   outer loop
     vertex  3.900000e-01 -6.500000e-02  0.000000e+00
     vertex  3.832983e-02 -1.143783e-02  0.000000e+00
     vertex  3.704699e-02 -1.508379e-02  0.000000e+00
   endloop
 endfacet
 facet normal  0.000000e+00  0.000000e+00  1.000000e+00
   outer loop
     vertex  3.900000e-01 -6.500000e-02  0.000000e+00
     vertex  3.925481e-02 -7.685069e-03  0.000000e+00
     vertex  3.832983e-02 -1.143783e-02  0.000000e+00
   endloop
 endfacet
 facet normal  0.000000e+00  0.000000e+00  1.000000e+00
   outer loop
     vertex  3.900000e-01 -6.500000e-02  0.000000e+00
     vertex  3.981327e-02 -3.860557e-03  0.000000e+00
     vertex  3.925481e-02 -7.685069e-03  0.000000e+00
   endloop
 endfacet
 facet normal  0.000000e+00  0.000000e+00  1.000000e+00
   outer loop
     vertex  3.900000e-01 -6.500000e-02  0.000000e+00
     vertex  4.000000e-02  0.000000e+00  0.000000e+00
     vertex  3.981327e-02 -3.860557e-03  0.000000e+00
   endloop
 endfacet
 facet normal  0.000000e+00  0.000000e+00  1.000000e+00
   outer loop
     vertex  3.900000e-01  6.500000e-02  0.000000e+00
     vertex  3.981327e-02  3.860557e-03  0.000000e+00
     vertex  4.000000e-02  0.000000e+00  0.000000e+00
   endloop
 endfacet
 facet normal  0.000000e+00  0.000000e+00  1.000000e+00
   outer loop
     vertex  3.900000e-01  6.500000e-02  0.000000e+00
     vertex  3.925481e-02  7.685069e-03  0.000000e+00
     vertex  3.981327e-02  3.860557e-03  0.000000e+00
   endloop
 endfacet
 facet normal  0.000000e+00  0.000000e+00  1.000000e+00
   outer loop
     vertex  3.900000e-01  6.500000e-02  0.000000e+00
     vertex  3.832983e-02  1.143783e-02  0.000000e+00
     vertex  3.925481e-02  7.685069e-03  0.000000e+00
   endloop
 endfacet
 facet normal  0.000000e+00  0.000000e+00  1.000000e+00
   outer loop
     vertex  3.900000e-01  6.500000e-02  0.000000e+00
     vertex  3.704699e-02  1.508379e-02  0.000000e+00
     vertex  3.832983e-02  1.143783e-02  0.000000e+00
   endloop
 endfacet
 facet normal  0.000000e+00  0.000000e+00  1.000000e+00
   outer loop
     vertex  3.900000e-01  6.500000e-02  0.000000e+00
     vertex  3.541824e-02  1.858893e-02  0.000000e+00
     vertex  3.704699e-02  1.508379e-02  0.000000e+00
   endloop
 endfacet
 facet normal  0.000000e+00  0.000000e+00  1.000000e+00
   outer loop
     vertex  3.900000e-01  6.500000e-02  0.000000e+00
     vertex  3.345881e-02  2.192050e-02  0.000000e+00
     vertex  3.541824e-02  1.858893e-02  0.000000e+00
   endloop
 endfacet
 facet normal  0.000000e+00  0.000000e+00  1.000000e+00
   outer loop
     vertex  3.900000e-01  6.500000e-02  0.000000e+00
     vertex  3.118697e-02  2.504741e-02  0.000000e+00
     vertex  3.345881e-02  2.192050e-02  0.000000e+00
   endloop
 endfacet
 facet normal  0.000000e+00  0.000000e+00  1.000000e+00
   outer loop
     vertex  3.900000e-01  6.500000e-02  0.000000e+00
     vertex  2.862396e-02  2.794045e-02  0.000000e+00
     vertex  3.118697e-02  2.504741e-02  0.000000e+00
   endloop
 endfacet
 facet normal  0.000000e+00  0.000000e+00  1.000000e+00
   outer loop
     vertex  3.900000e-01  6.500000e-02  0.000000e+00
     vertex  2.579369e-02  3.057263e-02  0.000000e+00
     vertex  2.862396e-02  2.794045e-02  0.000000e+00
   endloop
 endfacet
 facet normal  0.000000e+00  0.000000e+00  1.000000e+00
   outer loop
     vertex  3.900000e-01  6.500000e-02  0.000000e+00
     vertex  2.272259e-02  3.291935e-02  0.000000e+00
     vertex  2.579369e-02  3.057263e-02  0.000000e+00
   endloop
 endfacet
 facet normal  0.000000e+00  0.000000e+00  1.000000e+00
   outer loop
     vertex  3.900000e-01  6.500000e-02  0.000000e+00
     vertex  1.943934e-02  3.495872e-02  0.000000e+00
     vertex  2.272259e-02  3.291935e-02  0.000000e+00
   endloop
 endfacet
 facet normal  0.000000e+00  0.000000e+00  1.000000e+00
   outer loop
     vertex  3.900000e-01  6.500000e-02  0.000000e+00
     vertex  1.597458e-02  3.667169e-02  0.000000e+00
     vertex  1.943934e-02  3.495872e-02  0.000000e+00
   endloop
 endfacet
 facet normal  0.000000e+00  0.000000e+00  1.000000e+00
   outer loop
     vertex  3.900000e-01  6.500000e-02  0.000000e+00
     vertex  1.236068e-02  3.804226e-02  0.000000e+00
     vertex  1.597458e-02  3.667169e-02  0.000000e+00
   endloop
 endfacet
 facet normal  0.000000e+00  0.000000e+00  1.000000e+00
   outer loop
     vertex  3.900000e-01  6.500000e-02  0.000000e+00
     vertex  4.000000e-02  0.000000e+00  0.000000e+00
     vertex  3.900000e-01 -6.500000e-02  0.000000e+00
   endloop
 endfacet
 facet normal  0.000000e+00  0.000000e+00  1.000000e+00
   outer loop
     vertex  3.900000e-01  6.500000e-02  0.000000e+00
     vertex -5.650000e-01  6.500000e-02  0.000000e+00
     vertex  9.665498e-04  3.998832e-02  0.000000e+00
   endloop
 endfacet
 facet normal  0.000000e+00  0.000000e+00  1.000000e+00
   outer loop
     vertex  9.665498e-04  3.998832e-02  0.000000e+00
     vertex -5.650000e-01  6.500000e-02  0.000000e+00
     vertex -2.897392e-03  3.989493e-02  0.000000e+00
   endloop
 endfacet
 facet normal  0.000000e+00  0.000000e+00  1.000000e+00
   outer loop
     vertex -2.897392e-03  3.989493e-02  0.000000e+00
     vertex -5.650000e-01  6.500000e-02  0.000000e+00
     vertex -6.734282e-03  3.942904e-02  0.000000e+00
   endloop
 endfacet
 facet normal  0.000000e+00  0.000000e+00  1.000000e+00
   outer loop
     vertex -6.734282e-03  3.942904e-02  0.000000e+00
     vertex -5.650000e-01  6.500000e-02  0.000000e+00
     vertex -1.050830e-02  3.859502e-02  0.000000e+00
   endloop
 endfacet
 facet normal  0.000000e+00  0.000000e+00  1.000000e+00
   outer loop
     vertex -1.050830e-02  3.859502e-02  0.000000e+00
     vertex -5.650000e-01  6.500000e-02  0.000000e+00
     vertex -1.418420e-02  3.740065e-02  0.000000e+00
   endloop
 endfacet
 facet normal  0.000000e+00  0.000000e+00  1.000000e+00
   outer loop
     vertex -1.418420e-02  3.740065e-02  0.000000e+00
     vertex -5.650000e-01  6.500000e-02  0.000000e+00
     vertex -1.772766e-02  3.585708e-02  0.000000e+00
   endloop
 endfacet
 facet normal  0.000000e+00  0.000000e+00  1.000000e+00
   outer loop
     vertex  3.900000e-01  6.500000e-02  0.000000e+00
     vertex  9.665498e-04  3.998832e-02  0.000000e+00
     vertex  4.821467e-03  3.970835e-02  0.000000e+00
   endloop
 endfacet
 facet normal  0.000000e+00  0.000000e+00  1.000000e+00
   outer loop
     vertex  3.900000e-01  6.500000e-02  0.000000e+00
     vertex  4.821467e-03  3.970835e-02  0.000000e+00
     vertex  8.631368e-03  3.905764e-02  0.000000e+00
   endloop
 endfacet
 facet normal  0.000000e+00  0.000000e+00  1.000000e+00
   outer loop
     vertex  3.900000e-01  6.500000e-02  0.000000e+00
     vertex  8.631368e-03  3.905764e-02  0.000000e+00
     vertex  1.236068e-02  3.804226e-02  0.000000e+00
   endloop
 endfacet
 facet normal -9.988322e-01 -4.831338e-02  0.000000e+00
   outer loop
     vertex  3.981327e-02  3.860557e-03  0.000000e+00
     vertex  4.000000e-02  0.000000e+00 -1.000000e-01
     vertex  4.000000e-02  0.000000e+00  0.000000e+00
   endloop
 endfacet
 facet normal -9.988322e-01 -4.831338e-02 -0.000000e+00
   outer loop
     vertex  3.981327e-02  3.860557e-03  0.000000e+00
     vertex  3.981327e-02  3.860557e-03 -1.000000e-01
     vertex  4.000000e-02  0.000000e+00 -1.000000e-01
   endloop
 endfacet
 facet normal -9.895064e-01 -1.444890e-01 -0.000000e+00
   outer loop
     vertex  3.925481e-02  7.685069e-03  0.000000e+00
     vertex  3.925481e-02  7.685069e-03 -1.000000e-01
     vertex  3.981327e-02  3.860557e-03 -1.000000e-01
   endloop
 endfacet
 facet normal -9.895064e-01 -1.444890e-01  0.000000e+00
   outer loop
     vertex  3.925481e-02  7.685069e-03  0.000000e+00
     vertex  3.981327e-02  3.860557e-03 -1.000000e-01
     vertex  3.981327e-02  3.860557e-03  0.000000e+00
   endloop
 endfacet
 facet normal -9.709418e-01 -2.393157e-01 -0.000000e+00
   outer loop
     vertex  3.832983e-02  1.143783e-02  0.000000e+00
     vertex  3.832983e-02  1.143783e-02 -1.000000e-01
     vertex  3.925481e-02  7.685069e-03 -1.000000e-01
   endloop
 endfacet
 facet normal -9.709418e-01 -2.393157e-01  0.000000e+00
   outer loop
     vertex  3.832983e-02  1.143783e-02  0.000000e+00
     vertex  3.925481e-02  7.685069e-03 -1.000000e-01
     vertex  3.925481e-02  7.685069e-03  0.000000e+00
   endloop
 endfacet
 facet normal -9.433118e-01 -3.319079e-01 -0.000000e+00
   outer loop
     vertex  3.704699e-02  1.508379e-02  0.000000e+00
     vertex  3.704699e-02  1.508379e-02 -1.000000e-01
     vertex  3.832983e-02  1.143783e-02 -1.000000e-01
   endloop
 endfacet
 facet normal -9.433118e-01 -3.319079e-01  0.000000e+00
   outer loop
     vertex  3.704699e-02  1.508379e-02  0.000000e+00
     vertex  3.832983e-02  1.143783e-02 -1.000000e-01
     vertex  3.832983e-02  1.143783e-02  0.000000e+00
   endloop
 endfacet
 facet normal -9.068744e-01 -4.214011e-01 -0.000000e+00
   outer loop
     vertex  3.541824e-02  1.858893e-02  0.000000e+00
     vertex  3.541824e-02  1.858893e-02 -1.000000e-01
     vertex  3.704699e-02  1.508379e-02 -1.000000e-01
   endloop
 endfacet
 facet normal -9.068744e-01 -4.214011e-01  0.000000e+00
   outer loop
     vertex  3.541824e-02  1.858893e-02  0.000000e+00
     vertex  3.704699e-02  1.508379e-02 -1.000000e-01
     vertex  3.704699e-02  1.508379e-02  0.000000e+00
   endloop
 endfacet
 facet normal -8.619697e-01 -5.069599e-01 -0.000000e+00
   outer loop
     vertex  3.345881e-02  2.192050e-02  0.000000e+00
     vertex  3.345881e-02  2.192050e-02 -1.000000e-01
     vertex  3.541824e-02  1.858893e-02 -1.000000e-01
   endloop
 endfacet
 facet normal -8.619697e-01 -5.069599e-01  0.000000e+00
   outer loop
     vertex  3.345881e-02  2.192050e-02  0.000000e+00
     vertex  3.541824e-02  1.858893e-02 -1.000000e-01
     vertex  3.541824e-02  1.858893e-02  0.000000e+00
   endloop
 endfacet
 facet normal -8.090170e-01 -5.877853e-01 -0.000000e+00
   outer loop
     vertex  3.118697e-02  2.504741e-02  0.000000e+00
     vertex  3.118697e-02  2.504741e-02 -1.000000e-01
     vertex  3.345881e-02  2.192050e-02 -1.000000e-01
   endloop
 endfacet
 facet normal -8.090170e-01 -5.877853e-01  0.000000e+00
   outer loop
     vertex  3.118697e-02  2.504741e-02  0.000000e+00
     vertex  3.345881e-02  2.192050e-02 -1.000000e-01
     vertex  3.345881e-02  2.192050e-02  0.000000e+00
   endloop
 endfacet
 facet normal -7.485107e-01 -6.631227e-01 -0.000000e+00
   outer loop
     vertex  2.862396e-02  2.794045e-02  0.000000e+00
     vertex  2.862396e-02  2.794045e-02 -1.000000e-01
     vertex  3.118697e-02  2.504741e-02 -1.000000e-01
   endloop
 endfacet
 facet normal -7.485107e-01 -6.631227e-01  0.000000e+00
   outer loop
     vertex  2.862396e-02  2.794045e-02  0.000000e+00
     vertex  3.118697e-02  2.504741e-02 -1.000000e-01
     vertex  3.118697e-02  2.504741e-02  0.000000e+00
   endloop
 endfacet
 facet normal -6.810159e-01 -7.322687e-01 -0.000000e+00
   outer loop
     vertex  2.579369e-02  3.057263e-02  0.000000e+00
     vertex  2.579369e-02  3.057263e-02 -1.000000e-01
     vertex  2.862396e-02  2.794045e-02 -1.000000e-01
   endloop
 endfacet
 facet normal -6.810159e-01 -7.322687e-01  0.000000e+00
   outer loop
     vertex  2.579369e-02  3.057263e-02  0.000000e+00
     vertex  2.862396e-02  2.794045e-02 -1.000000e-01
     vertex  2.862396e-02  2.794045e-02  0.000000e+00
   endloop
 endfacet
 facet normal -6.071625e-01 -7.945777e-01 -0.000000e+00
   outer loop
     vertex  2.272259e-02  3.291935e-02  0.000000e+00
     vertex  2.272259e-02  3.291935e-02 -1.000000e-01
     vertex  2.579369e-02  3.057263e-02 -1.000000e-01
   endloop
 endfacet
 facet normal -6.071625e-01 -7.945777e-01  0.000000e+00
   outer loop
     vertex  2.272259e-02  3.291935e-02  0.000000e+00
     vertex  2.579369e-02  3.057263e-02 -1.000000e-01
     vertex  2.579369e-02  3.057263e-02  0.000000e+00
   endloop
 endfacet
 facet normal -5.276402e-01 -8.494679e-01 -0.000000e+00
   outer loop
     vertex  1.943934e-02  3.495872e-02  0.000000e+00
     vertex  1.943934e-02  3.495872e-02 -1.000000e-01
     vertex  2.272259e-02  3.291935e-02 -1.000000e-01
   endloop
 endfacet
 facet normal -5.276402e-01 -8.494679e-01  0.000000e+00
   outer loop
     vertex  1.943934e-02  3.495872e-02  0.000000e+00
     vertex  2.272259e-02  3.291935e-02 -1.000000e-01
     vertex  2.272259e-02  3.291935e-02  0.000000e+00
   endloop
 endfacet
 facet normal -4.431915e-01 -8.964269e-01 -0.000000e+00
   outer loop
     vertex  1.597458e-02  3.667169e-02  0.000000e+00
     vertex  1.597458e-02  3.667169e-02 -1.000000e-01
     vertex  1.943934e-02  3.495872e-02 -1.000000e-01
   endloop
 endfacet
 facet normal -4.431915e-01 -8.964269e-01  0.000000e+00
   outer loop
     vertex  1.597458e-02  3.667169e-02  0.000000e+00
     vertex  1.943934e-02  3.495872e-02 -1.000000e-01
     vertex  1.943934e-02  3.495872e-02  0.000000e+00
   endloop
 endfacet
 facet normal -3.546049e-01 -9.350162e-01 -0.000000e+00
   outer loop
     vertex  1.236068e-02  3.804226e-02  0.000000e+00
     vertex  1.236068e-02  3.804226e-02 -1.000000e-01
     vertex  1.597458e-02  3.667169e-02 -1.000000e-01
   endloop
 endfacet
 facet normal -3.546049e-01 -9.350162e-01  0.000000e+00
   outer loop
     vertex  1.236068e-02  3.804226e-02  0.000000e+00
     vertex  1.597458e-02  3.667169e-02 -1.000000e-01
     vertex  1.597458e-02  3.667169e-02  0.000000e+00
   endloop
 endfacet
 facet normal -2.627074e-01 -9.648756e-01 -0.000000e+00
   outer loop
     vertex  8.631368e-03  3.905764e-02  0.000000e+00
     vertex  8.631368e-03  3.905764e-02 -1.000000e-01
     vertex  1.236068e-02  3.804226e-02 -1.000000e-01
   endloop
 endfacet
 facet normal -2.627074e-01 -9.648756e-01  0.000000e+00
   outer loop
     vertex  8.631368e-03  3.905764e-02  0.000000e+00
     vertex  1.236068e-02  3.804226e-02 -1.000000e-01
     vertex  1.236068e-02  3.804226e-02  0.000000e+00
   endloop
 endfacet
 facet normal -1.683570e-01 -9.857261e-01 -0.000000e+00
   outer loop
     vertex  4.821467e-03  3.970835e-02  0.000000e+00
     vertex  4.821467e-03  3.970835e-02 -1.000000e-01
     vertex  8.631368e-03  3.905764e-02 -1.000000e-01
   endloop
 endfacet
 facet normal -1.683570e-01 -9.857261e-01  0.000000e+00
   outer loop
     vertex  4.821467e-03  3.970835e-02  0.000000e+00
     vertex  8.631368e-03  3.905764e-02 -1.000000e-01
     vertex  8.631368e-03  3.905764e-02  0.000000e+00
   endloop
 endfacet
 facet normal -7.243480e-02 -9.973731e-01 -0.000000e+00
   outer loop
     vertex  9.665498e-04  3.998832e-02  0.000000e+00
     vertex  9.665498e-04  3.998832e-02 -1.000000e-01
     vertex  4.821467e-03  3.970835e-02 -1.000000e-01
   endloop
 endfacet
 facet normal -7.243480e-02 -9.973731e-01  0.000000e+00
   outer loop
     vertex  9.665498e-04  3.998832e-02  0.000000e+00
     vertex  4.821467e-03  3.970835e-02 -1.000000e-01
     vertex  4.821467e-03  3.970835e-02  0.000000e+00
   endloop
 endfacet
 facet normal  2.416375e-02 -9.997080e-01  0.000000e+00
   outer loop
     vertex -2.897392e-03  3.989493e-02  0.000000e+00
     vertex  9.665498e-04  3.998832e-02 -1.000000e-01
     vertex  9.665498e-04  3.998832e-02  0.000000e+00
   endloop
 endfacet
 facet normal  2.416375e-02 -9.997080e-01  0.000000e+00
   outer loop
     vertex -2.897392e-03  3.989493e-02  0.000000e+00
     vertex -2.897392e-03  3.989493e-02 -1.000000e-01
     vertex  9.665498e-04  3.998832e-02 -1.000000e-01
   endloop
 endfacet
 facet normal  1.205367e-01 -9.927089e-01  0.000000e+00
   outer loop
     vertex -6.734282e-03  3.942904e-02  0.000000e+00
     vertex -2.897392e-03  3.989493e-02 -1.000000e-01
     vertex -2.897392e-03  3.989493e-02  0.000000e+00
   endloop
 endfacet
 facet normal  1.205367e-01 -9.927089e-01  0.000000e+00
   outer loop
     vertex -6.734282e-03  3.942904e-02  0.000000e+00
     vertex -6.734282e-03  3.942904e-02 -1.000000e-01
     vertex -2.897392e-03  3.989493e-02 -1.000000e-01
   endloop
 endfacet
 facet normal  2.157842e-01 -9.764411e-01  0.000000e+00
   outer loop
     vertex -1.050830e-02  3.859502e-02  0.000000e+00
     vertex -6.734282e-03  3.942904e-02 -1.000000e-01
     vertex -6.734282e-03  3.942904e-02  0.000000e+00
   endloop
 endfacet
 facet normal  2.157842e-01 -9.764411e-01  0.000000e+00
   outer loop
     vertex -1.050830e-02  3.859502e-02  0.000000e+00
     vertex -1.050830e-02  3.859502e-02 -1.000000e-01
     vertex -6.734282e-03  3.942904e-02 -1.000000e-01
   endloop
 endfacet
 facet normal  3.090170e-01 -9.510565e-01  0.000000e+00
   outer loop
     vertex -1.418420e-02  3.740065e-02  0.000000e+00
     vertex -1.050830e-02  3.859502e-02 -1.000000e-01
     vertex -1.050830e-02  3.859502e-02  0.000000e+00
   endloop
 endfacet
 facet normal  3.090170e-01 -9.510565e-01  0.000000e+00
   outer loop
     vertex -1.418420e-02  3.740065e-02  0.000000e+00
     vertex -1.418420e-02  3.740065e-02 -1.000000e-01
     vertex -1.050830e-02  3.859502e-02 -1.000000e-01
   endloop
 endfacet
 facet normal  3.993646e-01 -9.167922e-01  0.000000e+00
   outer loop
     vertex -1.772766e-02  3.585708e-02  0.000000e+00
     vertex -1.418420e-02  3.740065e-02 -1.000000e-01
     vertex -1.418420e-02  3.740065e-02  0.000000e+00
   endloop
 endfacet
 facet normal  3.993646e-01 -9.167922e-01  0.000000e+00
   outer loop
     vertex -1.772766e-02  3.585708e-02  0.000000e+00
     vertex -1.772766e-02  3.585708e-02 -1.000000e-01
     vertex -1.418420e-02  3.740065e-02 -1.000000e-01
   endloop
 endfacet
 facet normal  4.859834e-01 -8.739680e-01  0.000000e+00
   outer loop
     vertex -2.110561e-02  3.397872e-02  0.000000e+00
     vertex -2.110561e-02  3.397872e-02 -1.000000e-01
     vertex -1.772766e-02  3.585708e-02 -1.000000e-01
   endloop
 endfacet
 facet normal  4.859834e-01 -8.739680e-01  0.000000e+00
   outer loop
     vertex -2.110561e-02  3.397872e-02  0.000000e+00
     vertex -1.772766e-02  3.585708e-02 -1.000000e-01
     vertex -1.772766e-02  3.585708e-02  0.000000e+00
   endloop
 endfacet
 facet normal  5.680647e-01 -8.229839e-01  0.000000e+00
   outer loop
     vertex -2.428650e-02  3.178311e-02  0.000000e+00
     vertex -2.428650e-02  3.178311e-02 -1.000000e-01
     vertex -2.110561e-02  3.397872e-02 -1.000000e-01
   endloop
 endfacet
 facet normal  5.680647e-01 -8.229839e-01  0.000000e+00
   outer loop
     vertex -2.428650e-02  3.178311e-02  0.000000e+00
     vertex -2.110561e-02  3.397872e-02 -1.000000e-01
     vertex -2.110561e-02  3.397872e-02  0.000000e+00
   endloop
 endfacet
 facet normal  6.448422e-01 -7.643157e-01  0.000000e+00
   outer loop
     vertex -2.724063e-02  2.929075e-02  0.000000e+00
     vertex -2.724063e-02  2.929075e-02 -1.000000e-01
     vertex -2.428650e-02  3.178311e-02 -1.000000e-01
   endloop
 endfacet
 facet normal  6.448422e-01 -7.643157e-01  0.000000e+00
   outer loop
     vertex -2.724063e-02  2.929075e-02  0.000000e+00
     vertex -2.428650e-02  3.178311e-02 -1.000000e-01
     vertex -2.428650e-02  3.178311e-02  0.000000e+00
   endloop
 endfacet
 facet normal  7.155990e-01 -6.985114e-01  0.000000e+00
   outer loop
     vertex -2.994043e-02  2.652491e-02  0.000000e+00
     vertex -2.994043e-02  2.652491e-02 -1.000000e-01
     vertex -2.724063e-02  2.929075e-02 -1.000000e-01
   endloop
 endfacet
 facet normal  7.155990e-01 -6.985114e-01  0.000000e+00
   outer loop
     vertex -2.994043e-02  2.652491e-02  0.000000e+00
     vertex -2.724063e-02  2.929075e-02 -1.000000e-01
     vertex -2.724063e-02  2.929075e-02  0.000000e+00
   endloop
 endfacet
 facet normal  7.796744e-01 -6.261852e-01  0.000000e+00
   outer loop
     vertex -3.236068e-02  2.351141e-02  0.000000e+00
     vertex -3.236068e-02  2.351141e-02 -1.000000e-01
     vertex -2.994043e-02  2.652491e-02 -1.000000e-01
   endloop
 endfacet
 facet normal  7.796744e-01 -6.261852e-01  0.000000e+00
   outer loop
     vertex -3.236068e-02  2.351141e-02  0.000000e+00
     vertex -2.994043e-02  2.652491e-02 -1.000000e-01
     vertex -2.994043e-02  2.652491e-02  0.000000e+00
   endloop
 endfacet
 facet normal  8.364701e-01 -5.480125e-01  0.000000e+00
   outer loop
     vertex -3.447879e-02  2.027839e-02  0.000000e+00
     vertex -3.447879e-02  2.027839e-02 -1.000000e-01
     vertex -3.236068e-02  2.351141e-02 -1.000000e-01
   endloop
 endfacet
 facet normal  8.854560e-01 -4.647232e-01  0.000000e+00
   outer loop
     vertex -3.447879e-02  2.027839e-02  0.000000e+00
     vertex -3.627497e-02  1.685604e-02 -1.000000e-01
     vertex -3.447879e-02  2.027839e-02 -1.000000e-01
   endloop
 endfacet
 facet normal  8.364701e-01 -5.480125e-01  0.000000e+00
   outer loop
     vertex -3.447879e-02  2.027839e-02  0.000000e+00
     vertex -3.236068e-02  2.351141e-02 -1.000000e-01
     vertex -3.236068e-02  2.351141e-02  0.000000e+00
   endloop
 endfacet
 facet normal  8.854560e-01 -4.647232e-01  0.000000e+00
   outer loop
     vertex -3.627497e-02  1.685604e-02  0.000000e+00
     vertex -3.627497e-02  1.685604e-02 -1.000000e-01
     vertex -3.447879e-02  2.027839e-02  0.000000e+00
   endloop
 endfacet
 facet normal  9.261746e-01 -3.770948e-01  0.000000e+00
   outer loop
     vertex -3.773247e-02  1.327631e-02  0.000000e+00
     vertex -3.773247e-02  1.327631e-02 -1.000000e-01
     vertex -3.627497e-02  1.685604e-02 -1.000000e-01
   endloop
 endfacet
 facet normal  9.261746e-01 -3.770948e-01  0.000000e+00
   outer loop
     vertex -3.773247e-02  1.327631e-02  0.000000e+00
     vertex -3.627497e-02  1.685604e-02 -1.000000e-01
     vertex -3.627497e-02  1.685604e-02  0.000000e+00
   endloop
 endfacet
 facet normal  9.582458e-01 -2.859457e-01  0.000000e+00
   outer loop
     vertex -3.883767e-02  9.572627e-03  0.000000e+00
     vertex -3.883767e-02  9.572627e-03 -1.000000e-01
     vertex -3.773247e-02  1.327631e-02 -1.000000e-01
   endloop
 endfacet
 facet normal  9.582458e-01 -2.859457e-01  0.000000e+00
   outer loop
     vertex -3.883767e-02  9.572627e-03  0.000000e+00
     vertex -3.773247e-02  1.327631e-02 -1.000000e-01
     vertex -3.773247e-02  1.327631e-02  0.000000e+00
   endloop
 endfacet
 facet normal  9.813701e-01 -1.921267e-01  0.000000e+00
   outer loop
     vertex -3.958026e-02  5.779562e-03  0.000000e+00
     vertex -3.958026e-02  5.779562e-03 -1.000000e-01
     vertex -3.883767e-02  9.572627e-03 -1.000000e-01
   endloop
 endfacet
 facet normal  9.813701e-01 -1.921267e-01  0.000000e+00
   outer loop
     vertex -3.958026e-02  5.779562e-03  0.000000e+00
     vertex -3.883767e-02  9.572627e-03 -1.000000e-01
     vertex -3.883767e-02  9.572627e-03  0.000000e+00
   endloop
 endfacet
 facet normal  9.953316e-01 -9.651392e-02  0.000000e+00
   outer loop
     vertex -3.995329e-02  1.932535e-03  0.000000e+00
     vertex -3.995329e-02  1.932535e-03 -1.000000e-01
     vertex -3.958026e-02  5.779562e-03 -1.000000e-01
   endloop
 endfacet
 facet normal  9.953316e-01 -9.651392e-02  0.000000e+00
   outer loop
     vertex -3.995329e-02  1.932535e-03  0.000000e+00
     vertex -3.958026e-02  5.779562e-03 -1.000000e-01
     vertex -3.958026e-02  5.779562e-03  0.000000e+00
   endloop
 endfacet
 facet normal  1.000000e+00 -1.795283e-15  0.000000e+00
   outer loop
     vertex -3.995329e-02 -1.932535e-03  0.000000e+00
     vertex -3.995329e-02 -1.932535e-03 -1.000000e-01
     vertex -3.995329e-02  1.932535e-03 -1.000000e-01
   endloop
 endfacet
 facet normal  1.000000e+00 -1.795283e-15  0.000000e+00
   outer loop
     vertex -3.995329e-02 -1.932535e-03  0.000000e+00
     vertex -3.995329e-02  1.932535e-03 -1.000000e-01
     vertex -3.995329e-02  1.932535e-03  0.000000e+00
   endloop
 endfacet
 facet normal  9.953316e-01  9.651392e-02  0.000000e+00
   outer loop
     vertex -3.958026e-02 -5.779562e-03  0.000000e+00
     vertex -3.958026e-02 -5.779562e-03 -1.000000e-01
     vertex -3.995329e-02 -1.932535e-03 -1.000000e-01
   endloop
 endfacet
 facet normal  9.953316e-01  9.651392e-02  0.000000e+00
   outer loop
     vertex -3.958026e-02 -5.779562e-03  0.000000e+00
     vertex -3.995329e-02 -1.932535e-03 -1.000000e-01
     vertex -3.995329e-02 -1.932535e-03  0.000000e+00
   endloop
 endfacet
 facet normal  9.813701e-01  1.921267e-01  0.000000e+00
   outer loop
     vertex -3.883767e-02 -9.572627e-03  0.000000e+00
     vertex -3.883767e-02 -9.572627e-03 -1.000000e-01
     vertex -3.958026e-02 -5.779562e-03 -1.000000e-01
   endloop
 endfacet
 facet normal  9.582458e-01  2.859457e-01  0.000000e+00
   outer loop
     vertex -3.883767e-02 -9.572627e-03  0.000000e+00
     vertex -3.773247e-02 -1.327631e-02 -1.000000e-01
     vertex -3.883767e-02 -9.572627e-03 -1.000000e-01
   endloop
 endfacet
 facet normal  9.813701e-01  1.921267e-01  0.000000e+00
   outer loop
     vertex -3.883767e-02 -9.572627e-03  0.000000e+00
     vertex -3.958026e-02 -5.779562e-03 -1.000000e-01
     vertex -3.958026e-02 -5.779562e-03  0.000000e+00
   endloop
 endfacet
 facet normal  9.582458e-01  2.859457e-01  0.000000e+00
   outer loop
     vertex -3.773247e-02 -1.327631e-02  0.000000e+00
     vertex -3.773247e-02 -1.327631e-02 -1.000000e-01
     vertex -3.883767e-02 -9.572627e-03  0.000000e+00
   endloop
 endfacet
 facet normal  9.261746e-01  3.770948e-01  0.000000e+00
   outer loop
     vertex -3.627497e-02 -1.685604e-02  0.000000e+00
     vertex -3.627497e-02 -1.685604e-02 -1.000000e-01
     vertex -3.773247e-02 -1.327631e-02 -1.000000e-01
   endloop
 endfacet
 facet normal  9.261746e-01  3.770948e-01  0.000000e+00
   outer loop
     vertex -3.627497e-02 -1.685604e-02  0.000000e+00
     vertex -3.773247e-02 -1.327631e-02 -1.000000e-01
     vertex -3.773247e-02 -1.327631e-02  0.000000e+00
   endloop
 endfacet
 facet normal  8.854560e-01  4.647232e-01  0.000000e+00
   outer loop
     vertex -3.447879e-02 -2.027839e-02  0.000000e+00
     vertex -3.447879e-02 -2.027839e-02 -1.000000e-01
     vertex -3.627497e-02 -1.685604e-02 -1.000000e-01
   endloop
 endfacet
 facet normal  8.364701e-01  5.480125e-01  0.000000e+00
   outer loop
     vertex -3.447879e-02 -2.027839e-02  0.000000e+00
     vertex -3.236068e-02 -2.351141e-02 -1.000000e-01
     vertex -3.447879e-02 -2.027839e-02 -1.000000e-01
   endloop
 endfacet
 facet normal  8.854560e-01  4.647232e-01  0.000000e+00
   outer loop
     vertex -3.447879e-02 -2.027839e-02  0.000000e+00
     vertex -3.627497e-02 -1.685604e-02 -1.000000e-01
     vertex -3.627497e-02 -1.685604e-02  0.000000e+00
   endloop
 endfacet
 facet normal  8.364701e-01  5.480125e-01  0.000000e+00
   outer loop
     vertex -3.236068e-02 -2.351141e-02  0.000000e+00
     vertex -3.236068e-02 -2.351141e-02 -1.000000e-01
     vertex -3.447879e-02 -2.027839e-02  0.000000e+00
   endloop
 endfacet
 facet normal  7.796744e-01  6.261852e-01  0.000000e+00
   outer loop
     vertex -2.994043e-02 -2.652491e-02  0.000000e+00
     vertex -2.994043e-02 -2.652491e-02 -1.000000e-01
     vertex -3.236068e-02 -2.351141e-02 -1.000000e-01
   endloop
 endfacet
 facet normal  7.155990e-01  6.985114e-01  0.000000e+00
   outer loop
     vertex -2.994043e-02 -2.652491e-02  0.000000e+00
     vertex -2.724063e-02 -2.929075e-02 -1.000000e-01
     vertex -2.994043e-02 -2.652491e-02 -1.000000e-01
   endloop
 endfacet
 facet normal  7.796744e-01  6.261852e-01  0.000000e+00
   outer loop
     vertex -2.994043e-02 -2.652491e-02  0.000000e+00
     vertex -3.236068e-02 -2.351141e-02 -1.000000e-01
     vertex -3.236068e-02 -2.351141e-02  0.000000e+00
   endloop
 endfacet
 facet normal  6.448422e-01  7.643157e-01  0.000000e+00
   outer loop
     vertex -2.724063e-02 -2.929075e-02  0.000000e+00
     vertex -2.428650e-02 -3.178311e-02 -1.000000e-01
     vertex -2.724063e-02 -2.929075e-02 -1.000000e-01
   endloop
 endfacet
 facet normal  7.155990e-01  6.985114e-01  0.000000e+00
   outer loop
     vertex -2.724063e-02 -2.929075e-02  0.000000e+00
     vertex -2.724063e-02 -2.929075e-02 -1.000000e-01
     vertex -2.994043e-02 -2.652491e-02  0.000000e+00
   endloop
 endfacet
 facet normal  6.448422e-01  7.643157e-01  0.000000e+00
   outer loop
     vertex -2.428650e-02 -3.178311e-02  0.000000e+00
     vertex -2.428650e-02 -3.178311e-02 -1.000000e-01
     vertex -2.724063e-02 -2.929075e-02  0.000000e+00
   endloop
 endfacet
 facet normal  5.680647e-01  8.229839e-01  0.000000e+00
   outer loop
     vertex -2.110561e-02 -3.397872e-02  0.000000e+00
     vertex -2.428650e-02 -3.178311e-02 -1.000000e-01
     vertex -2.428650e-02 -3.178311e-02  0.000000e+00
   endloop
 endfacet
 facet normal  5.680647e-01  8.229839e-01  0.000000e+00
   outer loop
     vertex -2.110561e-02 -3.397872e-02  0.000000e+00
     vertex -2.110561e-02 -3.397872e-02 -1.000000e-01
     vertex -2.428650e-02 -3.178311e-02 -1.000000e-01
   endloop
 endfacet
 facet normal  4.859834e-01  8.739680e-01  0.000000e+00
   outer loop
     vertex -2.110561e-02 -3.397872e-02  0.000000e+00
     vertex -1.772766e-02 -3.585708e-02 -1.000000e-01
     vertex -2.110561e-02 -3.397872e-02 -1.000000e-01
   endloop
 endfacet
 facet normal  4.859834e-01  8.739680e-01  0.000000e+00
   outer loop
     vertex -1.772766e-02 -3.585708e-02  0.000000e+00
     vertex -1.772766e-02 -3.585708e-02 -1.000000e-01
     vertex -2.110561e-02 -3.397872e-02  0.000000e+00
   endloop
 endfacet
 facet normal  3.993646e-01  9.167922e-01  0.000000e+00
   outer loop
     vertex -1.418420e-02 -3.740065e-02  0.000000e+00
     vertex -1.772766e-02 -3.585708e-02 -1.000000e-01
     vertex -1.772766e-02 -3.585708e-02  0.000000e+00
   endloop
 endfacet
 facet normal  3.993646e-01  9.167922e-01  0.000000e+00
   outer loop
     vertex -1.418420e-02 -3.740065e-02  0.000000e+00
     vertex -1.418420e-02 -3.740065e-02 -1.000000e-01
     vertex -1.772766e-02 -3.585708e-02 -1.000000e-01
   endloop
 endfacet
 facet normal  3.090170e-01  9.510565e-01  0.000000e+00
   outer loop
     vertex -1.418420e-02 -3.740065e-02  0.000000e+00
     vertex -1.050830e-02 -3.859502e-02 -1.000000e-01
     vertex -1.418420e-02 -3.740065e-02 -1.000000e-01
   endloop
 endfacet
 facet normal  3.090170e-01  9.510565e-01  0.000000e+00
   outer loop
     vertex -1.050830e-02 -3.859502e-02  0.000000e+00
     vertex -1.050830e-02 -3.859502e-02 -1.000000e-01
     vertex -1.418420e-02 -3.740065e-02  0.000000e+00
   endloop
 endfacet
 facet normal  2.157842e-01  9.764411e-01  0.000000e+00
   outer loop
     vertex -6.734282e-03 -3.942904e-02  0.000000e+00
     vertex -1.050830e-02 -3.859502e-02 -1.000000e-01
     vertex -1.050830e-02 -3.859502e-02  0.000000e+00
   endloop
 endfacet
 facet normal  2.157842e-01  9.764411e-01  0.000000e+00
   outer loop
     vertex -6.734282e-03 -3.942904e-02  0.000000e+00
     vertex -6.734282e-03 -3.942904e-02 -1.000000e-01
     vertex -1.050830e-02 -3.859502e-02 -1.000000e-01
   endloop
 endfacet
 facet normal  1.205367e-01  9.927089e-01  0.000000e+00
   outer loop
     vertex -6.734282e-03 -3.942904e-02  0.000000e+00
     vertex -2.897392e-03 -3.989493e-02 -1.000000e-01
     vertex -6.734282e-03 -3.942904e-02 -1.000000e-01
   endloop
 endfacet
 facet normal  1.205367e-01  9.927089e-01  0.000000e+00
   outer loop
     vertex -2.897392e-03 -3.989493e-02  0.000000e+00
     vertex -2.897392e-03 -3.989493e-02 -1.000000e-01
     vertex -6.734282e-03 -3.942904e-02  0.000000e+00
   endloop
 endfacet
 facet normal  2.416375e-02  9.997080e-01  0.000000e+00
   outer loop
     vertex  9.665498e-04 -3.998832e-02  0.000000e+00
     vertex -2.897392e-03 -3.989493e-02 -1.000000e-01
     vertex -2.897392e-03 -3.989493e-02  0.000000e+00
   endloop
 endfacet
 facet normal  2.416375e-02  9.997080e-01  0.000000e+00
   outer loop
     vertex  9.665498e-04 -3.998832e-02  0.000000e+00
     vertex  9.665498e-04 -3.998832e-02 -1.000000e-01
     vertex -2.897392e-03 -3.989493e-02 -1.000000e-01
   endloop
 endfacet
 facet normal -7.243480e-02  9.973731e-01  0.000000e+00
   outer loop
     vertex  9.665498e-04 -3.998832e-02  0.000000e+00
     vertex  4.821467e-03 -3.970835e-02 -1.000000e-01
     vertex  9.665498e-04 -3.998832e-02 -1.000000e-01
   endloop
 endfacet
 facet normal -7.243480e-02  9.973731e-01  0.000000e+00
   outer loop
     vertex  4.821467e-03 -3.970835e-02  0.000000e+00
     vertex  4.821467e-03 -3.970835e-02 -1.000000e-01
     vertex  9.665498e-04 -3.998832e-02  0.000000e+00
   endloop
 endfacet
 facet normal -1.683570e-01  9.857261e-01  0.000000e+00
   outer loop
     vertex  8.631368e-03 -3.905764e-02  0.000000e+00
     vertex  4.821467e-03 -3.970835e-02 -1.000000e-01
     vertex  4.821467e-03 -3.970835e-02  0.000000e+00
   endloop
 endfacet
 facet normal -1.683570e-01  9.857261e-01  0.000000e+00
   outer loop
     vertex  8.631368e-03 -3.905764e-02  0.000000e+00
     vertex  8.631368e-03 -3.905764e-02 -1.000000e-01
     vertex  4.821467e-03 -3.970835e-02 -1.000000e-01
   endloop
 endfacet
 facet normal -2.627074e-01  9.648756e-01  0.000000e+00
   outer loop
     vertex  8.631368e-03 -3.905764e-02  0.000000e+00
     vertex  1.236068e-02 -3.804226e-02 -1.000000e-01
     vertex  8.631368e-03 -3.905764e-02 -1.000000e-01
   endloop
 endfacet
 facet normal -2.627074e-01  9.648756e-01  0.000000e+00
   outer loop
     vertex  1.236068e-02 -3.804226e-02  0.000000e+00
     vertex  1.236068e-02 -3.804226e-02 -1.000000e-01
     vertex  8.631368e-03 -3.905764e-02  0.000000e+00
   endloop
 endfacet
 facet normal -3.546049e-01  9.350162e-01  0.000000e+00
   outer loop
     vertex  1.597458e-02 -3.667169e-02  0.000000e+00
     vertex  1.236068e-02 -3.804226e-02 -1.000000e-01
     vertex  1.236068e-02 -3.804226e-02  0.000000e+00
   endloop
 endfacet
 facet normal -3.546049e-01  9.350162e-01  0.000000e+00
   outer loop
     vertex  1.597458e-02 -3.667169e-02  0.000000e+00
     vertex  1.597458e-02 -3.667169e-02 -1.000000e-01
     vertex  1.236068e-02 -3.804226e-02 -1.000000e-01
   endloop
 endfacet
 facet normal -4.431915e-01  8.964269e-01  0.000000e+00
   outer loop
     vertex  1.597458e-02 -3.667169e-02  0.000000e+00
     vertex  1.943934e-02 -3.495872e-02 -1.000000e-01
     vertex  1.597458e-02 -3.667169e-02 -1.000000e-01
   endloop
 endfacet
 facet normal -4.431915e-01  8.964269e-01  0.000000e+00
   outer loop
     vertex  1.943934e-02 -3.495872e-02  0.000000e+00
     vertex  1.943934e-02 -3.495872e-02 -1.000000e-01
     vertex  1.597458e-02 -3.667169e-02  0.000000e+00
   endloop
 endfacet
 facet normal -5.276402e-01  8.494679e-01  0.000000e+00
   outer loop
     vertex  2.272259e-02 -3.291935e-02  0.000000e+00
     vertex  1.943934e-02 -3.495872e-02 -1.000000e-01
     vertex  1.943934e-02 -3.495872e-02  0.000000e+00
   endloop
 endfacet
 facet normal -5.276402e-01  8.494679e-01  0.000000e+00
   outer loop
     vertex  2.272259e-02 -3.291935e-02  0.000000e+00
     vertex  2.272259e-02 -3.291935e-02 -1.000000e-01
     vertex  1.943934e-02 -3.495872e-02 -1.000000e-01
   endloop
 endfacet
 facet normal -6.071625e-01  7.945777e-01  0.000000e+00
   outer loop
     vertex  2.579369e-02 -3.057263e-02  0.000000e+00
     vertex  2.579369e-02 -3.057263e-02 -1.000000e-01
     vertex  2.272259e-02 -3.291935e-02 -1.000000e-01
   endloop
 endfacet
 facet normal -6.071625e-01  7.945777e-01  0.000000e+00
   outer loop
     vertex  2.579369e-02 -3.057263e-02  0.000000e+00
     vertex  2.272259e-02 -3.291935e-02 -1.000000e-01
     vertex  2.272259e-02 -3.291935e-02  0.000000e+00
   endloop
 endfacet
 facet normal -6.810159e-01  7.322687e-01  0.000000e+00
   outer loop
     vertex  2.862396e-02 -2.794045e-02  0.000000e+00
     vertex  2.862396e-02 -2.794045e-02 -1.000000e-01
     vertex  2.579369e-02 -3.057263e-02 -1.000000e-01
   endloop
 endfacet
 facet normal -6.810159e-01  7.322687e-01  0.000000e+00
   outer loop
     vertex  2.862396e-02 -2.794045e-02  0.000000e+00
     vertex  2.579369e-02 -3.057263e-02 -1.000000e-01
     vertex  2.579369e-02 -3.057263e-02  0.000000e+00
   endloop
 endfacet
 facet normal -7.485107e-01  6.631227e-01  0.000000e+00
   outer loop
     vertex  3.118697e-02 -2.504741e-02  0.000000e+00
     vertex  3.118697e-02 -2.504741e-02 -1.000000e-01
     vertex  2.862396e-02 -2.794045e-02 -1.000000e-01
   endloop
 endfacet
 facet normal -7.485107e-01  6.631227e-01  0.000000e+00
   outer loop
     vertex  3.118697e-02 -2.504741e-02  0.000000e+00
     vertex  2.862396e-02 -2.794045e-02 -1.000000e-01
     vertex  2.862396e-02 -2.794045e-02  0.000000e+00
   endloop
 endfacet
 facet normal -8.090170e-01  5.877853e-01  0.000000e+00
   outer loop
     vertex  3.345881e-02 -2.192050e-02  0.000000e+00
     vertex  3.345881e-02 -2.192050e-02 -1.000000e-01
     vertex  3.118697e-02 -2.504741e-02 -1.000000e-01
   endloop
 endfacet
 facet normal -8.090170e-01  5.877853e-01  0.000000e+00
   outer loop
     vertex  3.345881e-02 -2.192050e-02  0.000000e+00
     vertex  3.118697e-02 -2.504741e-02 -1.000000e-01
     vertex  3.118697e-02 -2.504741e-02  0.000000e+00
   endloop
 endfacet
 facet normal -8.619697e-01  5.069599e-01  0.000000e+00
   outer loop
     vertex  3.541824e-02 -1.858893e-02  0.000000e+00
     vertex  3.541824e-02 -1.858893e-02 -1.000000e-01
     vertex  3.345881e-02 -2.192050e-02 -1.000000e-01
   endloop
 endfacet
 facet normal -8.619697e-01  5.069599e-01  0.000000e+00
   outer loop
     vertex  3.541824e-02 -1.858893e-02  0.000000e+00
     vertex  3.345881e-02 -2.192050e-02 -1.000000e-01
     vertex  3.345881e-02 -2.192050e-02  0.000000e+00
   endloop
 endfacet
 facet normal -9.068744e-01  4.214011e-01  0.000000e+00
   outer loop
     vertex  3.704699e-02 -1.508379e-02  0.000000e+00
     vertex  3.704699e-02 -1.508379e-02 -1.000000e-01
     vertex  3.541824e-02 -1.858893e-02 -1.000000e-01
   endloop
 endfacet
 facet normal -9.068744e-01  4.214011e-01  0.000000e+00
   outer loop
     vertex  3.704699e-02 -1.508379e-02  0.000000e+00
     vertex  3.541824e-02 -1.858893e-02 -1.000000e-01
     vertex  3.541824e-02 -1.858893e-02  0.000000e+00
   endloop
 endfacet
 facet normal -9.433118e-01  3.319079e-01  0.000000e+00
   outer loop
     vertex  3.832983e-02 -1.143783e-02  0.000000e+00
     vertex  3.832983e-02 -1.143783e-02 -1.000000e-01
     vertex  3.704699e-02 -1.508379e-02 -1.000000e-01
   endloop
 endfacet
 facet normal -9.433118e-01  3.319079e-01  0.000000e+00
   outer loop
     vertex  3.832983e-02 -1.143783e-02  0.000000e+00
     vertex  3.704699e-02 -1.508379e-02 -1.000000e-01
     vertex  3.704699e-02 -1.508379e-02  0.000000e+00
   endloop
 endfacet
 facet normal -9.709418e-01  2.393157e-01  0.000000e+00
   outer loop
     vertex  3.925481e-02 -7.685069e-03  0.000000e+00
     vertex  3.925481e-02 -7.685069e-03 -1.000000e-01
     vertex  3.832983e-02 -1.143783e-02 -1.000000e-01
   endloop
 endfacet
 facet normal -9.709418e-01  2.393157e-01  0.000000e+00
   outer loop
     vertex  3.925481e-02 -7.685069e-03  0.000000e+00
     vertex  3.832983e-02 -1.143783e-02 -1.000000e-01
     vertex  3.832983e-02 -1.143783e-02  0.000000e+00
   endloop
 endfacet
 facet normal -9.895064e-01  1.444890e-01  0.000000e+00
   outer loop
     vertex  3.981327e-02 -3.860557e-03  0.000000e+00
     vertex  3.981327e-02 -3.860557e-03 -1.000000e-01
     vertex  3.925481e-02 -7.685069e-03 -1.000000e-01
   endloop
 endfacet
 facet normal -9.895064e-01  1.444890e-01  0.000000e+00
   outer loop
     vertex  3.981327e-02 -3.860557e-03  0.000000e+00
     vertex  3.925481e-02 -7.685069e-03 -1.000000e-01
     vertex  3.925481e-02 -7.685069e-03  0.000000e+00
   endloop
 endfacet
 facet normal -9.988322e-01  4.831338e-02  0.000000e+00
   outer loop
     vertex  4.000000e-02  0.000000e+00  0.000000e+00
     vertex  4.000000e-02  0.000000e+00 -1.000000e-01
     vertex  3.981327e-02 -3.860557e-03 -1.000000e-01
   endloop
 endfacet
 facet normal -9.988322e-01  4.831338e-02  0.000000e+00
   outer loop
     vertex  4.000000e-02  0.000000e+00  0.000000e+00
     vertex  3.981327e-02 -3.860557e-03 -1.000000e-01
     vertex  3.981327e-02 -3.860557e-03  0.000000e+00
   endloop
 endfacet
endsolid
